# xmcd
# 
# Track frame offsets:
#     182
#     18265
#     32630
#     49070
#     62390
#     78740
#     96327
#     112302
#     129140
#     145397
#     162175
#     178412
#     197107
#     217127
#     236277
#     252250
#     268870
# 
# Disc length: 4020
# 
# Revision: 27
# Processed by: cddbd v1.5.2PL0 Copyright (c) Steve Scherf et al.
# Submitted via: fre:ac v1.0.27
# 
DISCID=f90fb211
DTITLE=Synthétiseurs - Les Plus Grands Thèmes - Volume 1
DYEAR=1989
DGENRE=Synthpop
TTITLE0=Theme From “Antarctica”
TTITLE1=Moments In Love
TTITLE2=Mammagamma
TTITLE3=Axel F
TTITLE4=Autobahn
TTITLE5=Magnetic Fields (Part 2)
TTITLE6=Electricity
TTITLE7=Equinoxe (Part 5)
TTITLE8=Chariots Of Fire
TTITLE9=Hymne
TTITLE10=Crockett's Theme
TTITLE11=Fourth Rendez-Vous
TTITLE12=Pulstar
TTITLE13=Oxygene
TTITLE14=To The Unknown Man
TTITLE15=Chase (Theme From “Midnight Express”)
TTITLE16=Tubular Bells (Theme From “The Exorcist”)
EXTD=
EXTT0=
EXTT1=
EXTT2=
EXTT3=
EXTT4=
EXTT5=
EXTT6=
EXTT7=
EXTT8=
EXTT9=
EXTT10=
EXTT11=
EXTT12=
EXTT13=
EXTT14=
EXTT15=
EXTT16=
PLAYORDER=
